<svg width="1440" height="1440" viewBox="0 0 1440 1440" fill="none" xmlns="http://www.w3.org/2000/svg">
<rect width="1440" height="1440" fill="black"/>
<circle cx="720" cy="720" r="512" fill="white"/>
<path d="M769.058 833.366C798.773 902.033 764.695 985.86 690.366 977.299C645.246 972.102 602.286 955.132 565.795 928.091C529.305 901.05 500.566 864.889 482.463 823.234C464.36 781.58 457.529 735.898 462.655 690.77C467.781 645.642 484.683 602.655 511.667 566.122C538.651 529.589 574.767 500.794 616.393 482.626C658.019 464.457 703.69 457.554 748.826 462.609C823.182 470.937 837.591 560.271 793.233 620.525L776.031 643.891C741.337 691.018 734.293 753.029 757.534 806.737L769.058 833.366Z" fill="black"/>
</svg>
