<svg width="1440" height="1440" viewBox="0 0 1440 1440" fill="none" xmlns="http://www.w3.org/2000/svg">
<rect width="1440" height="1440" fill="black"/>
<circle cx="720" cy="720" r="512" fill="white"/>
<path d="M769.058 833.366C798.773 902.033 764.695 985.86 690.366 977.299V977.299C645.246 972.102 602.286 955.132 565.795 928.091C529.305 901.05 500.566 864.889 482.463 823.234C464.36 781.58 457.529 735.898 462.655 690.77C467.781 645.642 484.683 602.655 511.667 566.122C538.651 529.589 574.767 500.794 616.393 482.626C658.019 464.457 703.69 457.554 748.826 462.609V462.609C823.182 470.937 837.591 560.271 793.233 620.525L776.031 643.891C741.337 691.018 734.293 753.029 757.534 806.737L769.058 833.366Z" fill="black"/>
<rect width="1440" height="1440" fill="black"/>
<circle cx="720" cy="720" r="512" fill="white"/>
<path d="M751.763 600.628C771.001 528.323 849.699 483.658 902.725 536.444V536.444C934.913 568.486 958.109 608.43 969.987 652.267C981.864 696.105 982.005 742.295 970.396 786.204C958.786 830.113 935.834 870.198 903.842 902.436C871.85 934.674 831.943 957.933 788.124 969.88C744.306 981.826 698.116 982.039 654.188 970.499C610.261 958.958 570.141 936.069 537.852 904.127V904.127C484.661 851.508 528.721 772.47 600.876 752.677L628.857 745.001C685.293 729.52 729.254 685.22 744.302 628.667L751.763 600.628Z" fill="black"/>
<circle cx="522" cy="525" r="64" fill="black"/>
<circle cx="461" cy="784" r="64" fill="black"/>
<circle cx="784" cy="461" r="64" fill="black"/>
</svg>
